<svg width="174" height="153" viewBox="0 0 174 153" fill="none" xmlns="http://www.w3.org/2000/svg">
<path d="M10.0095 141.075C10.0095 118.979 9.53349 99.1489 15.324 77.69C18.9044 64.4212 26.7014 43.2325 39.6928 36.1463C57.0848 26.6598 88.9153 24.6993 106.253 34.3316C124.245 44.3268 134.548 63.6578 142.094 81.5787C146.794 92.7406 150.84 105.481 153.436 117.16C155.072 124.524 157 133.5 157 141.075" stroke="#1B1817" stroke-width="4.63894" stroke-linecap="round"/>
<path d="M25.1732 138.741C25.1732 126.687 25.1732 114.632 25.1732 102.577C25.1732 95.7322 28.0858 89.1012 31.0062 82.745C33.3014 77.7495 36.6879 55.4948 42.6721 54.7468C45.0691 54.4471 50.2422 50.8004 52.5882 49.4971C60.6868 44.9979 70.9538 44.2474 80.0031 44.2474C83.1645 44.2474 89.5991 43.0585 91.9283 45.1548C93.8858 46.9165 96.9561 46.846 99.1871 48.2657C101.321 49.6234 103.996 51.411 106.251 52.4136C110.879 54.4702 111.96 60.0135 115.584 62.9129C118.213 65.0161 121.464 68.7471 123.167 71.7272C125.184 75.2572 127.639 81.4232 130.75 83.9116C134.219 86.6871 134.842 93.2553 137.425 96.4849C139.853 99.5193 141.094 104.707 142.74 108.41C144.251 111.809 144.12 116.261 145.916 119.493C149.471 125.893 149.999 148.396 149.999 141.075" stroke="#1B1817" stroke-width="4.63894" stroke-linecap="round"/>
<path d="M40.3431 139.907C40.3431 129.624 40.3431 119.341 40.3431 109.057C40.3431 102.995 39.7448 96.5519 42.4171 90.9104C46.2638 82.7896 49.9931 73.8899 55.5088 66.9952C60.3026 61.0031 68.8446 62.9122 75.9242 62.9122C79.5967 62.9122 83.3416 62.6966 87.0069 62.9122C89.6386 63.067 94.9481 67.1316 97.5062 68.4859C102.713 71.2425 109.644 80.3704 112.413 85.0774C116.264 91.6252 120.534 97.7349 124.338 104.391C127.96 110.73 131.643 118.521 133.606 125.39C134.31 127.853 136.004 131.664 136.004 134.074C136.004 135.478 138.337 143.122 138.337 138.741" stroke="#1B1817" stroke-width="4.63894" stroke-linecap="round"/>
<path d="M54.3394 139.908C54.3394 124.079 53.1753 104.615 63.4129 91.8181C67.6705 86.4961 69.9547 83.1733 77.6713 82.7446C83.0252 82.4472 92.1808 81.2401 96.8553 83.9112C101.655 86.654 104.652 90.0229 108.521 93.8921C110.396 95.7671 111.546 98.3491 113.317 100.373C115.157 102.476 115.132 108.28 116.752 109.576C118.637 111.084 122.002 122.64 122.002 125.325C122.002 128.343 124.335 130.413 124.335 133.491C124.335 135.017 126.668 140.454 126.668 139.908" stroke="#1B1817" stroke-width="4.63894" stroke-linecap="round"/>
<path d="M11.1777 142.242H59.0081" stroke="#1B1817" stroke-width="4.63894" stroke-linecap="round"/>
<path d="M125.502 144.575H164" stroke="#1B1817" stroke-width="4.63894" stroke-linecap="round"/>
</svg>
