<svg width="214" height="214" viewBox="0 0 214 214" fill="none" xmlns="http://www.w3.org/2000/svg">
<path d="M96.5887 110.554C90.1366 110.554 78.5655 108.319 81.021 118.428C83.6043 129.063 94.5966 139.233 105.882 135.608C114.098 132.969 120.179 130.247 120.179 121.132C120.179 108.159 108.754 96.2211 96.5887 93.3733C88.5779 91.498 76.3603 90.1283 68.4715 93.2142C63.8044 95.0398 60.5145 100.019 57.9077 104.031C53.7244 110.47 50.9448 118.471 50.8387 126.223C50.7057 135.947 55.5682 143.289 64.0236 148.493C87.0771 162.682 121.461 159.174 138.764 137.756C146.331 128.389 152.452 116.581 153.617 104.429C154.292 97.3887 156.748 88.618 150.043 83.9082C131.715 71.0329 105.951 67.6028 84.1187 67.6028C77.2833 67.6028 71.9262 67.2611 66.1682 71.1821C62.1341 73.929 59.249 78.6371 56.9546 82.7947C51.0374 93.517 48.7676 105.674 48.6942 117.792C48.6551 124.259 48.1544 130.985 49.4488 137.358C50.4029 142.055 52.765 145.321 55.1278 149.368C64.9712 166.229 85.723 170.115 103.737 169.969C126.575 169.783 145.31 157.042 153.776 135.767C157.615 126.119 160.443 112.896 157.589 102.52C155.842 96.1701 149.26 91.2387 144.046 87.8056C137.919 83.7711 130.844 81.9813 123.594 81.9197C112.822 81.8283 93.7293 80.1841 93.7293 95.7594C93.7293 104.99 93.6909 112.398 100.004 119.86C101.012 121.051 109.377 128.29 107.709 129.881C104.597 132.849 99.188 134.67 95.3576 136.364C86.5763 140.247 77.4864 143.992 68.2333 146.584C51.6699 151.225 28.8458 154.926 18.7502 137.278C12.7827 126.847 7.60653 113.025 7.23331 100.691C7.18516 99.0999 7.01327 97.8682 8.50414 96.9127C14.4147 93.1247 23.1119 92.1556 29.7906 90.828C50.0561 86.7997 70.1953 85.499 90.7905 85.499C99.1239 85.499 107.089 83.5612 112.871 90.5099C123.937 103.808 128.26 119.829 115.651 133.858C105.45 145.209 95.7829 154.786 81.021 159.788C73.6312 162.292 61.5583 164.5 54.5718 159.788C46.6264 154.429 42.9755 142.926 42.9755 133.858C42.9755 128.631 41.5819 121.52 43.5712 116.598C46.2322 110.015 49.4142 104.286 55.4455 100.373C67.0762 92.8254 81.054 88.3997 94.5236 85.499C96.4913 85.0752 109.509 81.0946 110.727 83.6696C112.632 87.6979 107.806 96.893 106.438 100.412C102.992 109.273 99.5018 117.949 96.6681 127.018C94.1092 135.208 92.5706 142.488 91.9819 151.078C91.7109 155.034 90.8239 159.866 92.4585 163.685C97.2751 174.94 113.619 176.19 123.912 177.127C137.367 178.352 153.857 178.54 164.896 169.094C170.581 164.229 171.052 157.546 169.9 150.561C167.345 135.077 157.535 118.256 147.184 106.656C138.103 96.4801 127.035 88.5532 113.03 87.0897C108.682 86.6354 104.055 86.7843 99.6864 86.9704C93.9603 87.2144 91.3526 88.9692 87.6929 93.2937C76.07 107.028 74.1809 126.199 74.4286 143.562C74.5828 154.375 78.9299 168.277 88.9637 174.105C92.8822 176.381 98.1375 176.306 101.99 174.264C105.789 172.249 106.571 172.116 101.434 172.116C83.4531 172.116 63.7193 174.194 46.3114 168.696C39.319 166.488 36.8051 162.932 35.9859 155.652C32.5204 124.853 43.1826 93.3289 56.4781 66.0121C61.7102 55.2621 72.9474 41.1166 86.2235 41.1166C92.5352 41.1166 94.3103 44.0381 98.3758 48.7125C105.369 56.7531 111.759 65.9396 117.915 74.642C118.111 74.9194 124.854 84.326 122.561 84.7433C114.595 86.1939 103.354 85.5224 96.2313 81.88C79.9264 73.5424 62.9814 61.3505 43.4917 66.9268C39.2452 68.1417 35.1103 73.7101 33.5237 77.4656C29.1397 87.8421 24.7102 103.508 27.2886 115.127C27.807 117.463 51.8684 114.543 52.8244 114.451C75.198 112.289 96.7479 103.046 114.817 89.794C122.352 84.2676 131.73 74.6703 141.664 74.0852C150.011 73.5935 158.861 73.4929 166.882 75.9544C180.074 80.0028 194.064 85.6665 189.161 101.486C185.771 112.426 180.025 123.737 174.229 133.62C170.959 139.195 166.276 143.889 159.971 145.948C151.651 148.665 139.925 149.984 133.443 143.045C125.192 134.213 125.062 117.998 124.507 106.616C124.376 103.928 125.821 98.042 122.641 96.5946C116.349 93.7306 111.16 99.814 109.138 104.827C106.89 110.401 107.007 115.943 106.755 121.928C106.447 129.252 106.233 136.611 109.496 143.363C112.273 149.112 118.813 160.908 126.255 162.055C130.395 162.693 129.386 162.392 125.381 163.566C113.894 166.933 101.844 168.855 89.8771 169.213C83.7275 169.397 74.9881 169.991 72.6812 162.731C69.6985 153.344 80.8876 148.718 87.6929 145.71C101.793 139.476 115.726 132.936 130.186 127.575C137.214 124.969 144.548 122.94 151.473 120.098C156.129 118.187 167.199 115.646 158.701 111.468C145.464 104.961 131.704 98.3304 117.756 93.4528C109.79 90.6672 101.275 89.2063 92.8159 89.8338C84.9354 90.4184 76.8794 98.8804 69.1467 93.9698C61.6042 89.1801 57.0127 77.6152 54.8101 69.1936C53.8877 65.6668 52.2072 63.1882 56.3192 62.1942C68.7857 59.1808 85.3099 59.1662 97.8993 60.9216C109.636 62.5582 118.71 71.7861 125.619 80.6074C129.766 85.9022 133.344 91.8254 134.833 98.3842C137.155 108.616 126.175 118.777 119.186 124.393C103.33 137.132 83.0417 142.767 63.0705 142.767C46.8956 142.767 36.7333 127.131 30.8231 113.815C29.1991 110.155 27.3736 103.924 24.0321 101.248C20.8259 98.679 34.0544 94.8085 34.1591 94.7652C42.9046 91.1413 51.7948 88.7555 60.7671 85.8967C61.0354 85.8112 64.2221 85.5195 64.2619 85.3399C64.5305 84.1296 54.6055 84.0639 53.6981 84.0275C45.3983 83.695 37.0547 83.7073 28.758 83.3117C26.3767 83.1981 21.4584 82.5496 20.1005 80.1699C19.2459 78.6723 18.0099 85.9913 17.956 86.2943C17.0836 91.1963 16.185 96.0244 15.4937 100.969C13.3679 116.175 10.6601 131.852 15.8114 146.624C17.9686 152.81 21.4499 158.68 26.8915 162.452C29.6939 164.395 30.0196 164.836 30.8231 168.457C33.4013 180.076 54.2725 170.726 59.9729 167.583C69.6545 162.243 79.2989 155.48 87.9709 148.533C89.6446 147.192 90.8125 146.721 88.4077 145.471C84.3059 143.338 80.6623 141.093 77.2085 137.955C62.3196 124.425 52.826 105.666 41.3869 89.3566C36.9495 83.03 32.7255 76.5235 28.5992 69.989C26.7691 67.0909 24.1403 64.0928 22.9599 60.8421C22.49 59.5483 21.9452 59.0557 23.8336 59.0127C28.9781 58.8956 33.9792 59.2399 39.0438 60.2455C69.1891 66.231 99.6264 75.6681 128.598 85.8569C143.381 91.0559 158.178 96.4998 172.68 102.441C178.16 104.686 183.871 106.774 189.002 109.758C191.166 111.016 193.807 110.968 193.807 113.775C193.807 123.77 201.695 131.047 203.061 140.619C203.439 143.274 197.31 147.054 195.555 148.812C192.836 151.534 189.175 153.308 185.626 154.538C180.732 156.235 176.424 158.337 171.091 158.515C168.396 158.605 169.206 152.419 169.662 150.482C170.913 145.156 174.2 140.071 177.326 135.688C182.548 128.367 187.383 120.748 191.981 113.019C194.106 109.447 198.396 102.954 197.223 98.3842C194.759 88.7901 190.917 77.7107 183.879 70.5457C177.76 64.3163 170.472 64.4959 162.513 66.887C160.26 67.5639 155.921 68.4849 155.921 71.3411C155.921 82.3127 159.656 91.4675 166.087 100.373C172.828 109.706 183.049 113.743 193.649 116.996C197.427 118.156 199.332 118.707 200.797 122.007C202.184 125.132 200.581 132.01 199.526 134.733C196.886 141.552 186.871 146.46 180.225 147.778C168.757 150.05 157.286 151.06 151.473 138.79C146.228 127.719 146.449 112.987 147.581 101.088C148.462 91.8212 153.544 80.1568 160.369 73.6477C163.97 70.2128 170.142 66.7696 175.221 66.1711C176.762 65.9897 175.936 69.6366 175.936 71.5002C175.936 80.1939 175.107 89.3309 176.095 97.9865C176.651 102.86 176.627 104.358 171.965 106.815C155.487 115.5 135.394 112.872 117.319 112.701C106.953 112.603 95.4913 108.903 90.314 99.2591C85.1299 89.6021 83.8621 76.3819 84.4364 65.4553C84.804 58.4616 102.863 60.4753 106.914 60.4444C117.773 60.3614 128.744 59.9819 139.559 61.0011C140.147 61.0566 148.323 61.1673 145.754 60.2853C136.915 57.2505 128.52 57.3506 119.464 55.9902C111.21 54.7504 102.421 55.8007 98.7332 64.3418C97.5369 67.1123 97.9696 70.7635 98.0581 73.6875C98.3024 81.761 100.184 89.2196 104.77 95.998C114.672 110.636 134.331 111 150.043 112.701C157.664 113.526 169.222 113.337 169.503 123.757C169.726 132.043 166.622 138.649 161.163 144.835C156.026 150.656 150.978 157.403 144.642 161.935C136.26 167.931 127.019 170.49 116.843 171.241C105.814 172.056 98.9852 167.804 92.7762 158.674C89.7715 154.256 87.622 149.262 85.8661 144.238C85.6096 143.504 84.541 141.621 84.5952 140.778C84.7012 139.133 94.7677 139.041 94.9207 139.028C118.173 137.024 141.534 134.176 164.896 134.176C168.48 134.176 178.196 136.516 174.904 130.279C170.527 121.986 162.026 114.737 155.722 107.969C146.521 98.0891 135.196 88.1687 123.117 81.9993C110.192 75.3973 95.5174 73.1139 81.577 69.5913C72.8416 67.3839 64.9721 64.8821 56.0809 63.8645C51.3368 63.3216 46.6595 63.3078 41.8635 63.3078C37.1493 63.3078 37.0949 73.0201 35.9859 76.2725C32.1716 87.4587 29.0224 98.7142 26.3752 110.235C25.9253 112.193 22.4052 121.849 24.7073 124.155C27.2164 126.667 32.3939 128.313 35.4299 129.523C45.7443 133.636 56.8122 135.081 67.7567 136.483C91.2475 139.492 114.915 142.863 138.526 144.755C142.056 145.038 148.772 147.929 148.772 143.005C148.772 130.48 149.166 118.071 150.758 105.622C151.79 97.5541 154.153 89.4901 154.491 81.363C154.51 80.9089 166.257 88.0275 167.676 89.2373C172.573 93.4123 179.378 99.5571 179.511 106.577C179.599 111.259 177.885 113.748 175.182 117.712C168.987 126.796 161.008 134.42 152.426 141.255C141.715 149.786 128.675 151.102 115.333 150.641C108.81 150.416 99.3354 147.601 93.8882 143.642C86.5928 138.339 88.6369 123.998 91.2671 116.996C97.315 100.897 108.742 87.6673 119.662 74.7215C127.184 65.8047 135.252 57.8374 143.451 49.6272C146.006 47.0685 157.33 37.717 146.945 41.1166C140.823 43.1208 135.738 48.4685 130.345 51.8542C115.686 61.0583 101.127 73.0677 84.4364 78.4996C75.7115 81.3391 97.9589 93.6793 99.8849 94.7652C119.687 105.93 143.023 113.212 165.889 114.093C168.598 114.197 172.778 112.916 174.904 114.133C178.019 115.915 179.734 119.504 183.839 119.82C186.879 120.054 187.66 119.129 187.93 116.042C188.751 106.636 187.308 96.8458 185.984 87.567C184.345 76.0783 182.432 60.6895 173.037 52.928C166.359 47.4111 158.306 44.1461 150.162 41.4745C138.146 37.5327 124.49 38.969 111.998 38.969C104.584 38.969 97.1712 38.969 89.758 38.969C86.0963 38.969 84.4364 37.9386 84.4364 41.9119C84.4364 50.5722 84.8961 58.5882 88.4872 66.6484C95.8357 83.1423 111.765 89.7432 129.233 90.1917C137.64 90.4076 146.015 88.6909 152.982 83.8287C154.636 82.674 155.87 80.5901 157.708 79.7722C164.248 76.8616 144.032 84.4925 136.898 85.0615C128.719 85.7139 119.139 86.5717 111.044 84.8627C103.5 83.2697 95.6396 77.3286 90.0757 72.2558C86.7149 69.1918 72.0371 53.5982 82.0933 50.0249C90.3834 47.0791 99.0884 47.5592 107.748 47.5592C123.117 47.5592 138.486 47.5592 153.856 47.5592C158.116 47.5592 162.073 46.4825 164.936 49.3488C169.164 53.5826 177.573 53.9184 182.966 55.0755C189.406 56.4575 195.83 57.4966 202.306 58.6548C205.257 59.1825 205.96 59.2054 205.96 62.2738C205.96 68.5435 203.823 71.6921 200.44 77.1872C196.442 83.6796 192.648 90.2786 188.962 96.9525C187.369 99.8373 186.338 103.122 184.514 105.861C181.151 110.913 175.957 111.72 170.297 113.019C165.723 114.069 160.331 114.815 155.682 113.815C146.422 111.822 140.144 101.321 135.865 93.8505C128.626 81.2099 124.442 66.6003 116.644 54.3995C116.52 54.2046 114.544 50.4424 113.904 51.2975C113.547 51.7737 120.596 54.2309 121.013 54.3995C138.332 61.4035 156.414 66.4314 174.387 71.4604C179.226 72.8143 185.453 74.7613 190.511 74.7613C190.717 74.7613 190.11 74.6687 189.915 74.6022C186.868 73.56 184.054 71.62 181.258 70.0685C171.797 64.8186 162.365 60.1353 152.267 56.1891C131.181 47.9488 109.302 46.7125 87.1369 43.5822C76.6265 42.0979 66.2281 39.3783 56.2795 35.7079C53.7621 34.7792 53.6981 34.4254 53.6981 37.5771C53.6981 40.7966 54.3114 44.0328 54.5718 47.241C55.2913 56.1036 54.934 66.0145 57.9872 74.4431C62.1468 85.9263 68.0099 98.1566 78.8765 104.429C85.2144 108.088 91.5943 111.857 98.8921 113.019C112.246 115.147 122.617 107.716 134.475 103.077C140.559 100.697 146.572 98.237 152.585 95.6799C155.212 94.5628 158.346 94.227 160.845 92.9756C162.85 91.9716 162.576 89.7295 161.798 87.9647C158.719 80.9761 155.584 74.0257 152.664 66.9665C150.387 61.4615 149.074 55.5661 146.667 50.1442C144.559 45.3932 143.31 45.3912 141.584 50.1442C137.117 62.4457 135.711 76.5576 135.23 89.5554C134.904 98.3699 134.48 107.618 139.122 115.485C143.323 122.605 149.602 123.439 157.271 123.439C165.1 123.439 172.881 115.792 174.745 108.326C178.005 95.2659 164.818 93.6252 154.968 93.413C144.146 93.18 135.346 96.346 126.294 102.202C115.971 108.881 105.897 115.789 96.7476 124.035C92.3195 128.026 87.0829 131.767 83.4038 136.483C82.6431 137.458 81.577 139.063 81.577 137C81.577 127.812 78.9744 119.874 76.5731 110.951C74.2871 102.457 71.507 94.2244 68.7098 85.8967C68.1672 84.281 66.0792 80.5812 66.605 78.7382C66.9342 77.5844 75.8756 78.2871 77.0497 78.3405C91.8466 79.014 106.845 86.734 120.02 92.8563C129.45 97.2386 137.984 102.244 146.389 108.326C150.408 111.235 154.568 113.851 157.35 118.03C158.107 119.166 158.868 119.878 158.78 121.291C158.73 122.097 158.065 116.583 158.065 115.803C158.065 102.446 157.521 89.0798 159.495 75.8351C159.515 75.7034 160.12 68.6368 160.925 68.6368C161.189 68.6368 160.925 69.1671 160.925 69.4322C160.925 71.0362 160.925 72.6403 160.925 74.2443C160.925 84.9325 160.279 96.4846 162.791 106.935C164.504 114.061 166.75 122.628 172.442 127.694C176.273 131.104 182.434 133.89 187.016 136.284C193.616 139.733 188.39 131.228 184.912 129.961C183.521 129.455 181.267 129.881 179.789 129.881C177.116 129.881 174.628 129.166 172.005 129.166C169.384 129.166 166.763 129.166 164.141 129.166C161.932 129.166 162.268 131.313 164.499 131.313" stroke="#1B1817" stroke-width="3" stroke-linecap="round"/>
</svg>
